<svg width="30" height="30" viewBox="0 0 30 30" fill="none" xmlns="http://www.w3.org/2000/svg">
<rect width="30" height="30" rx="8" fill="white"/>
<g clip-path="url(#clip0_1_1041)">
<path fill-rule="evenodd" clip-rule="evenodd" d="M22.3305 9.19196C22.7592 9.60347 23 10.1616 23 10.7436V11.155C23 11.1914 22.9849 11.2262 22.9582 11.252C22.9314 11.2777 22.895 11.2921 22.8571 11.2921H7.14286C7.10498 11.2921 7.06864 11.2777 7.04185 11.252C7.01506 11.2262 7.00001 11.1914 7.00001 11.155V10.7436C7.00001 10.1616 7.24082 9.60347 7.66948 9.19196C8.09813 8.78045 8.67951 8.54927 9.28572 8.54927H9.85715V8.0007C9.85716 7.92644 9.87287 7.85296 9.90333 7.7847C9.9338 7.71645 9.97838 7.65484 10.0344 7.60361C10.0904 7.55238 10.1566 7.5126 10.2291 7.48668C10.3016 7.46076 10.3788 7.44924 10.4561 7.45281C10.7636 7.46756 11 7.72093 11 8.01613V8.54927H19V8.0007C19 7.92644 19.0157 7.85296 19.0462 7.7847C19.0766 7.71645 19.1212 7.65484 19.1772 7.60361C19.2332 7.55238 19.2995 7.5126 19.372 7.48668C19.4445 7.46076 19.5217 7.44924 19.5989 7.45281C19.9064 7.46756 20.1429 7.72093 20.1429 8.01613V8.54927H20.7143C21.3205 8.54927 21.9019 8.78045 22.3305 9.19196ZM7.66948 22.0323C7.24082 21.6208 7.00001 21.0627 7.00001 20.4807V12.355C7.00001 12.3277 7.0113 12.3015 7.03139 12.2823C7.05148 12.263 7.07873 12.2521 7.10715 12.2521H22.8929C22.9213 12.2521 22.9485 12.263 22.9686 12.2823C22.9887 12.3015 23 12.3277 23 12.355V20.4807C23 21.0627 22.7592 21.6208 22.3305 22.0323C21.9019 22.4438 21.3205 22.675 20.7143 22.675H9.28572C8.67951 22.675 8.09813 22.4438 7.66948 22.0323ZM19.7619 13.4879C19.621 13.3975 19.4552 13.3493 19.2857 13.3493C19.0584 13.3493 18.8404 13.436 18.6796 13.5903C18.5189 13.7446 18.4286 13.9539 18.4286 14.1721C18.4286 14.3349 18.4788 14.494 18.573 14.6293C18.6672 14.7646 18.8011 14.8701 18.9577 14.9323C19.1143 14.9946 19.2867 15.0109 19.4529 14.9792C19.6192 14.9474 19.7719 14.8691 19.8918 14.754C20.0117 14.6389 20.0933 14.4923 20.1264 14.3327C20.1595 14.173 20.1425 14.0076 20.0776 13.8572C20.0127 13.7069 19.9029 13.5784 19.7619 13.4879ZM19.7619 16.2308C19.621 16.1404 19.4552 16.0921 19.2857 16.0921C19.0584 16.0921 18.8404 16.1788 18.6796 16.3331C18.5189 16.4875 18.4286 16.6967 18.4286 16.915C18.4286 17.0777 18.4788 17.2368 18.573 17.3721C18.6672 17.5075 18.8011 17.6129 18.9577 17.6752C19.1143 17.7375 19.2867 17.7538 19.4529 17.722C19.6192 17.6903 19.7719 17.6119 19.8918 17.4968C20.0117 17.3818 20.0933 17.2351 20.1264 17.0755C20.1595 16.9159 20.1425 16.7504 20.0776 16.6001C20.0127 16.4497 19.9029 16.3212 19.7619 16.2308ZM16.9048 13.4879C16.7638 13.3975 16.5981 13.3493 16.4286 13.3493C16.2012 13.3493 15.9832 13.436 15.8225 13.5903C15.6617 13.7446 15.5714 13.9539 15.5714 14.1721C15.5714 14.3349 15.6217 14.494 15.7159 14.6293C15.8101 14.7646 15.9439 14.8701 16.1006 14.9323C16.2572 14.9946 16.4295 15.0109 16.5958 14.9792C16.7621 14.9474 16.9148 14.8691 17.0347 14.754C17.1545 14.6389 17.2362 14.4923 17.2692 14.3327C17.3023 14.173 17.2853 14.0076 17.2205 13.8572C17.1556 13.7069 17.0457 13.5784 16.9048 13.4879ZM16.9048 16.2308C16.7638 16.1404 16.5981 16.0921 16.4286 16.0921C16.2012 16.0921 15.9832 16.1788 15.8225 16.3331C15.6617 16.4875 15.5714 16.6967 15.5714 16.915C15.5714 17.0777 15.6217 17.2368 15.7159 17.3721C15.8101 17.5075 15.9439 17.6129 16.1006 17.6752C16.2572 17.7375 16.4295 17.7538 16.5958 17.722C16.7621 17.6903 16.9148 17.6119 17.0347 17.4968C17.1545 17.3818 17.2362 17.2351 17.2692 17.0755C17.3023 16.9159 17.2853 16.7504 17.2205 16.6001C17.1556 16.4497 17.0457 16.3212 16.9048 16.2308ZM16.9048 18.9737C16.7638 18.8832 16.5981 18.835 16.4286 18.835C16.2012 18.835 15.9832 18.9217 15.8225 19.076C15.6617 19.2303 15.5714 19.4396 15.5714 19.6578C15.5714 19.8206 15.6217 19.9797 15.7159 20.115C15.8101 20.2503 15.9439 20.3558 16.1006 20.4181C16.2572 20.4803 16.4295 20.4966 16.5958 20.4649C16.7621 20.4331 16.9148 20.3548 17.0347 20.2397C17.1545 20.1246 17.2362 19.978 17.2692 19.8184C17.3023 19.6588 17.2853 19.4933 17.2205 19.3429C17.1556 19.1926 17.0457 19.0641 16.9048 18.9737ZM14.0476 16.2308C13.9067 16.1404 13.741 16.0921 13.5714 16.0921C13.3441 16.0921 13.1261 16.1788 12.9653 16.3331C12.8046 16.4875 12.7143 16.6967 12.7143 16.915C12.7143 17.0777 12.7646 17.2368 12.8587 17.3721C12.9529 17.5075 13.0868 17.6129 13.2434 17.6752C13.4 17.7375 13.5724 17.7538 13.7387 17.722C13.9049 17.6903 14.0577 17.6119 14.1775 17.4968C14.2974 17.3818 14.379 17.2351 14.4121 17.0755C14.4452 16.9159 14.4282 16.7504 14.3633 16.6001C14.2985 16.4497 14.1886 16.3212 14.0476 16.2308ZM14.0476 18.9737C13.9067 18.8832 13.741 18.835 13.5714 18.835C13.3441 18.835 13.1261 18.9217 12.9653 19.076C12.8046 19.2303 12.7143 19.4396 12.7143 19.6578C12.7143 19.8206 12.7646 19.9797 12.8587 20.115C12.9529 20.2503 13.0868 20.3558 13.2434 20.4181C13.4 20.4803 13.5724 20.4966 13.7387 20.4649C13.9049 20.4331 14.0577 20.3548 14.1775 20.2397C14.2974 20.1246 14.379 19.978 14.4121 19.8184C14.4452 19.6588 14.4282 19.4933 14.3633 19.3429C14.2985 19.1926 14.1886 19.0641 14.0476 18.9737ZM11.1905 16.2308C11.0495 16.1404 10.8838 16.0921 10.7143 16.0921C10.487 16.0921 10.2689 16.1788 10.1082 16.3331C9.94745 16.4875 9.85715 16.6967 9.85715 16.915C9.85715 17.0777 9.90742 17.2368 10.0016 17.3721C10.0958 17.5075 10.2297 17.6129 10.3863 17.6752C10.5429 17.7375 10.7152 17.7538 10.8815 17.722C11.0478 17.6903 11.2005 17.6119 11.3204 17.4968C11.4403 17.3818 11.5219 17.2351 11.555 17.0755C11.588 16.9159 11.5711 16.7504 11.5062 16.6001C11.4413 16.4497 11.3315 16.3212 11.1905 16.2308ZM11.1905 18.9737C11.0495 18.8832 10.8838 18.835 10.7143 18.835C10.487 18.835 10.2689 18.9217 10.1082 19.076C9.94745 19.2303 9.85715 19.4396 9.85715 19.6578C9.85715 19.8206 9.90742 19.9797 10.0016 20.115C10.0958 20.2503 10.2297 20.3558 10.3863 20.4181C10.5429 20.4803 10.7152 20.4966 10.8815 20.4649C11.0478 20.4331 11.2005 20.3548 11.3204 20.2397C11.4403 20.1246 11.5219 19.978 11.555 19.8184C11.588 19.6588 11.5711 19.4933 11.5062 19.3429C11.4413 19.1926 11.3315 19.0641 11.1905 18.9737Z" fill="black"/>
</g>
<defs>
<clipPath id="clip0_1_1041">
<rect width="16" height="16" fill="white" transform="translate(7 7)"/>
</clipPath>
</defs>
</svg>
