<svg width="16" height="16" viewBox="0 0 16 16" fill="none" xmlns="http://www.w3.org/2000/svg">
<path fill-rule="evenodd" clip-rule="evenodd" d="M2.35005 8.30493C2.33978 5.10161 5.00084 2.4707 8.33181 2.4707C11.2334 2.4707 13.6385 4.47957 14.198 7.11893L14.1984 7.12076C14.2825 7.51248 14.325 7.91199 14.3252 8.31263C14.325 11.5475 11.754 14.2003 8.4481 14.2003C7.94377 14.2003 7.21469 14.0671 6.82105 13.957C6.41729 13.844 6.00647 13.6914 5.90469 13.6521L5.90339 13.6516C5.70305 13.5746 5.49032 13.535 5.27572 13.5347L5.27664 13.5347L5.27398 14.2847L5.2748 13.5347L5.27572 13.5347C5.04798 13.534 4.82239 13.5779 4.61164 13.6639L3.18614 14.1782L3.60178 12.6748L3.60224 12.6731C3.67762 12.398 3.61918 12.1483 3.57579 12.0099C3.52728 11.8553 3.45813 11.7188 3.40237 11.6213L3.40245 11.6213L3.39625 11.6108C3.36171 11.5526 3.32442 11.4961 3.2845 11.4414C2.67484 10.51 2.35002 9.42085 2.35006 8.30736L2.35005 8.30493ZM8.33181 0.970703C4.20649 0.970703 0.837673 4.24037 0.850055 8.30854C0.850247 9.72163 1.26497 11.1036 2.04287 12.2833L2.05524 12.3021L2.06871 12.3201C2.08108 12.3366 2.09263 12.3537 2.10332 12.3714C2.1095 12.3823 2.11526 12.3931 2.12051 12.4035L1.52175 14.5694C1.49781 14.6526 1.48248 14.738 1.47602 14.8244L1.47431 14.8473L1.474 14.8702C1.4721 15.0105 1.49804 15.1498 1.55032 15.28C1.60259 15.4102 1.68017 15.5288 1.77856 15.6288C1.87695 15.7288 1.99419 15.8083 2.12351 15.8628C2.25284 15.9172 2.39167 15.9454 2.53197 15.9459L2.57222 15.946L2.61224 15.9418C2.73059 15.9294 2.84655 15.9004 2.95671 15.8557L5.13725 15.0689L5.1564 15.062L5.17514 15.054C5.20556 15.0411 5.23828 15.0346 5.27132 15.0347L5.27316 15.0347C5.30465 15.0347 5.33587 15.0405 5.36528 15.0517L5.36433 15.0514L5.63451 14.3517L5.36562 15.0519C5.49056 15.1001 5.94951 15.2707 6.41676 15.4015C6.89577 15.5355 7.76622 15.7003 8.4481 15.7003C12.5987 15.7003 15.8252 12.3595 15.8252 8.3122V8.31176C15.8249 7.80592 15.7713 7.30152 15.6652 6.80693C14.9566 3.46649 11.933 0.970703 8.33181 0.970703ZM6.41676 8.34575C6.41676 8.90287 5.96513 9.35451 5.40801 9.35451C4.85089 9.35451 4.39925 8.90287 4.39925 8.34575C4.39925 7.78863 4.85089 7.337 5.40801 7.337C5.96513 7.337 6.41676 7.78863 6.41676 8.34575ZM8.43494 9.35451C8.99206 9.35451 9.4437 8.90287 9.4437 8.34575C9.4437 7.78863 8.99206 7.337 8.43494 7.337C7.87782 7.337 7.42618 7.78863 7.42618 8.34575C7.42618 8.90287 7.87782 9.35451 8.43494 9.35451ZM12.4707 8.34575C12.4707 8.90287 12.0191 9.35451 11.462 9.35451C10.9049 9.35451 10.4532 8.90287 10.4532 8.34575C10.4532 7.78864 10.9049 7.337 11.462 7.337C12.0191 7.337 12.4707 7.78864 12.4707 8.34575Z" fill="#818181"/>
</svg>
