<svg width="13" height="13" viewBox="0 0 13 13" fill="none" xmlns="http://www.w3.org/2000/svg">
<path fill-rule="evenodd" clip-rule="evenodd" d="M6.87474 0.576569C3.62026 0.576569 0.980011 3.21682 0.980011 6.4713C0.980011 9.72578 3.62026 12.366 6.87474 12.366C10.1292 12.366 12.7695 9.72578 12.7695 6.4713C12.7695 3.21682 10.1292 0.576569 6.87474 0.576569ZM1.98001 6.4713C1.98001 3.7691 4.17254 1.57657 6.87474 1.57657C9.57694 1.57657 11.7695 3.7691 11.7695 6.4713C11.7695 9.1735 9.57694 11.366 6.87474 11.366C4.17254 11.366 1.98001 9.1735 1.98001 6.4713ZM5.43006 4.31949C5.2348 4.12423 4.91822 4.12423 4.72296 4.31949C4.5277 4.51475 4.5277 4.83134 4.72296 5.0266L6.16765 6.47129L4.72296 7.91598C4.5277 8.11124 4.5277 8.42782 4.72296 8.62309C4.91822 8.81835 5.2348 8.81835 5.43006 8.62309L6.87475 7.17839L8.31944 8.62309C8.51471 8.81835 8.83129 8.81835 9.02655 8.62309C9.22181 8.42782 9.22181 8.11124 9.02655 7.91598L7.58186 6.47129L9.02655 5.0266C9.22181 4.83134 9.22181 4.51475 9.02655 4.31949C8.83129 4.12423 8.51471 4.12423 8.31944 4.31949L6.87475 5.76418L5.43006 4.31949Z" fill="#818181"/>
</svg>
