<svg width="30" height="30" viewBox="0 0 30 30" fill="none" xmlns="http://www.w3.org/2000/svg">
<rect width="30" height="30" rx="8" fill="white"/>
<path fill-rule="evenodd" clip-rule="evenodd" d="M8.2973 14.4955H13.1982C13.5423 14.4955 13.8722 14.3588 14.1155 14.1155C14.3588 13.8722 14.4955 13.5423 14.4955 13.1982V8.2973C14.4955 7.95323 14.3588 7.62326 14.1155 7.37997C13.8722 7.13668 13.5423 7 13.1982 7H8.2973C7.95323 7 7.62326 7.13668 7.37997 7.37997C7.13668 7.62326 7 7.95323 7 8.2973V13.1982C7 13.5423 7.13668 13.8722 7.37997 14.1155C7.62326 14.3588 7.95323 14.4955 8.2973 14.4955ZM16.8018 14.4955H21.7027C22.0468 14.4955 22.3767 14.3588 22.62 14.1155C22.8633 13.8722 23 13.5423 23 13.1982V8.2973C23 7.95323 22.8633 7.62326 22.62 7.37997C22.3767 7.13668 22.0468 7 21.7027 7H16.8018C16.4577 7 16.1278 7.13668 15.8845 7.37997C15.6412 7.62326 15.5045 7.95323 15.5045 8.2973V13.1982C15.5045 13.5423 15.6412 13.8722 15.8845 14.1155C16.1278 14.3588 16.4577 14.4955 16.8018 14.4955ZM13.1982 23H8.2973C7.95323 23 7.62326 22.8633 7.37997 22.62C7.13668 22.3767 7 22.0468 7 21.7027V16.8018C7 16.4577 7.13668 16.1278 7.37997 15.8845C7.62326 15.6412 7.95323 15.5045 8.2973 15.5045H13.1982C13.5423 15.5045 13.8722 15.6412 14.1155 15.8845C14.3588 16.1278 14.4955 16.4577 14.4955 16.8018V21.7027C14.4955 22.0468 14.3588 22.3767 14.1155 22.62C13.8722 22.8633 13.5423 23 13.1982 23ZM16.8018 23H21.7027C22.0468 23 22.3767 22.8633 22.62 22.62C22.8633 22.3767 23 22.0468 23 21.7027V16.8018C23 16.4577 22.8633 16.1278 22.62 15.8845C22.3767 15.6412 22.0468 15.5045 21.7027 15.5045H16.8018C16.4577 15.5045 16.1278 15.6412 15.8845 15.8845C15.6412 16.1278 15.5045 16.4577 15.5045 16.8018V21.7027C15.5045 22.0468 15.6412 22.3767 15.8845 22.62C16.1278 22.8633 16.4577 23 16.8018 23Z" fill="black"/>
</svg>
