<svg width="32" height="32" viewBox="0 0 32 32" fill="none" xmlns="http://www.w3.org/2000/svg">
<rect x="32" y="32" width="32" height="32" rx="4" transform="rotate(-180 32 32)" fill="#F2F2F2"/>
<path fill-rule="evenodd" clip-rule="evenodd" d="M12.75 21C12.75 20.3096 13.3096 19.75 14 19.75H18C18.6904 19.75 19.25 20.3096 19.25 21C19.25 21.6904 18.6904 22.25 18 22.25H14C13.3096 22.25 12.75 21.6904 12.75 21ZM9.75 16C9.75 15.3096 10.3096 14.75 11 14.75L21 14.75C21.6904 14.75 22.25 15.3096 22.25 16C22.25 16.6904 21.6904 17.25 21 17.25H11C10.3096 17.25 9.75 16.6904 9.75 16ZM8.5 9.75C7.80964 9.75 7.25 10.3096 7.25 11C7.25 11.6904 7.80964 12.25 8.5 12.25L23.5 12.25C24.1904 12.25 24.75 11.6904 24.75 11C24.75 10.3096 24.1904 9.75 23.5 9.75L8.5 9.75Z" fill="#5246FF"/>
</svg>
