<svg width="30" height="30" viewBox="0 0 30 30" fill="none" xmlns="http://www.w3.org/2000/svg">
<rect width="30" height="30" rx="8" fill="white"/>
<g clip-path="url(#clip0_1_1043)">
<path fill-rule="evenodd" clip-rule="evenodd" d="M21.5669 20.3289C21.4493 20.3264 21.3332 20.3032 21.2244 20.2603L19.1967 19.5702L19.1817 19.5644C19.1375 19.5467 19.09 19.5378 19.0421 19.5383C18.998 19.5383 18.9542 19.546 18.9128 19.5609C18.8636 19.5788 18.4197 19.7389 17.954 19.8616C17.7015 19.9281 16.8227 20.1451 16.1174 20.1451C14.3147 20.1451 12.6291 19.48 11.3717 18.2722C10.7575 17.6862 10.2704 16.9889 9.93871 16.2209C9.60702 15.4529 9.43731 14.6294 9.4394 13.798C9.43939 13.3648 9.488 12.9329 9.58439 12.5097C9.89829 11.1171 10.7296 9.85035 11.9252 8.94426C13.1517 8.0207 14.6658 7.51942 16.2245 7.52085C18.089 7.52085 19.8263 8.2065 21.1169 9.44685C22.3368 10.6217 23.0053 12.1665 23 13.7963C22.9989 15.0074 22.6222 16.1907 21.9179 17.1954L21.9111 17.205L21.8847 17.2393C21.8786 17.2472 21.8726 17.2547 21.8669 17.2626L21.8615 17.2719C21.8473 17.2951 21.8344 17.319 21.8229 17.3435L22.385 19.2613C22.4099 19.3404 22.4233 19.4224 22.425 19.505C22.4252 19.6133 22.4031 19.7205 22.36 19.8205C22.3169 19.9205 22.2537 20.0113 22.174 20.0879C22.0943 20.1644 21.9996 20.2251 21.8954 20.2664C21.7913 20.3078 21.6796 20.329 21.5669 20.3289ZM16.4137 20.83C16.4772 20.878 16.5291 20.9384 16.566 21.0073C16.6129 21.0973 16.6313 21.1984 16.6189 21.2983C16.6065 21.3982 16.5639 21.4924 16.4963 21.5692C16.3528 21.7285 16.1275 21.8213 15.9434 21.8972C15.8985 21.9157 15.8561 21.9332 15.8178 21.9504C14.9807 22.3274 14.0673 22.5224 13.1427 22.5216C12.4006 22.5216 11.6175 22.379 10.8651 22.1102C10.7993 22.0862 10.7266 22.0862 10.6608 22.1102L8.74989 22.8181C8.64802 22.8587 8.53879 22.8796 8.42849 22.8795C8.23239 22.8794 8.0421 22.8156 7.88854 22.6985L7.87211 22.6851C7.75603 22.5903 7.66836 22.4676 7.61815 22.3295C7.56793 22.1914 7.55698 22.0429 7.58642 21.8994C7.62064 21.729 7.66697 21.4979 7.71658 21.2504C7.79588 20.8547 7.88356 20.4173 7.94353 20.1197C7.96424 19.9655 7.96424 19.8969 7.87139 19.7485C7.37761 18.9853 7.08393 18.1186 7.01552 17.2226C6.9471 16.3267 7.10599 15.4281 7.47857 14.604C7.61142 14.3088 7.89282 14.0147 7.89282 14.0147C7.96958 13.9311 8.07102 13.872 8.18365 13.8451C8.29628 13.8183 8.41476 13.825 8.52332 13.8644C8.63187 13.9038 8.72537 13.9739 8.79136 14.0656C8.85735 14.1572 8.89271 14.266 8.89273 14.3774C8.89273 14.3774 8.89273 14.4604 8.94273 14.7943C9.1635 16.2591 9.87398 17.6153 10.9672 18.659C12.1969 19.8417 13.831 20.5572 15.5675 20.6731C15.6184 20.6767 15.6736 20.6786 15.7312 20.6806C15.8819 20.6859 16.0492 20.6917 16.1985 20.7296C16.2769 20.7479 16.3503 20.7821 16.4137 20.83Z" fill="black"/>
</g>
<defs>
<clipPath id="clip0_1_1043">
<rect width="16" height="16" fill="white" transform="translate(7 7)"/>
</clipPath>
</defs>
</svg>
