<svg width="30" height="30" viewBox="0 0 30 30" fill="none" xmlns="http://www.w3.org/2000/svg">
<rect width="30" height="30" rx="8" fill="white"/>
<g clip-path="url(#clip0_1_1039)">
<path d="M18.7673 12.3158C18.9947 12.0451 18.9596 11.6414 18.6889 11.4141C18.4183 11.1868 18.0146 11.2219 17.7872 11.4925L13.2982 16.8366L11.6638 15.0206C11.4273 14.7579 11.0227 14.7366 10.7599 14.9731C10.4972 15.2095 10.4759 15.6142 10.7124 15.8769L12.8391 18.24C12.9631 18.3777 13.1406 18.4549 13.3258 18.4518C13.511 18.4486 13.6857 18.3653 13.8049 18.2235L18.7673 12.3158Z" fill="black"/>
<path fill-rule="evenodd" clip-rule="evenodd" d="M14.7292 7.12875C10.4619 7.12875 7 10.5907 7 14.858C7 19.1253 10.4619 22.5872 14.7292 22.5872C18.9965 22.5872 22.4585 19.1253 22.4585 14.858C22.4585 10.5907 18.9965 7.12875 14.7292 7.12875ZM8.28 14.858C8.28 11.2976 11.1688 8.40875 14.7292 8.40875C18.2896 8.40875 21.1784 11.2976 21.1784 14.858C21.1784 18.4184 18.2896 21.3072 14.7292 21.3072C11.1688 21.3072 8.28 18.4184 8.28 14.858Z" fill="black"/>
</g>
<defs>
<clipPath id="clip0_1_1039">
<rect width="16" height="16" fill="white" transform="translate(7 7)"/>
</clipPath>
</defs>
</svg>
