<svg width="17" height="18" viewBox="0 0 17 18" fill="none" xmlns="http://www.w3.org/2000/svg">
<rect y="0.5" width="17" height="17" rx="8.5" fill="#CDCDCD"/>
<path d="M6.301 5.5C6.74338 5.5 7.102 5.83615 7.102 6.2508V11.7492C7.102 12.1639 6.74338 12.5 6.301 12.5C5.85862 12.5 5.5 12.1639 5.5 11.7492V6.2508C5.5 5.83615 5.85862 5.5 6.301 5.5Z" fill="white"/>
<path d="M11.5 6.2508C11.5 5.83615 11.1414 5.5 10.699 5.5C10.2566 5.5 9.898 5.83615 9.898 6.2508V11.7492C9.898 12.1639 10.2566 12.5 10.699 12.5C11.1414 12.5 11.5 12.1639 11.5 11.7492V6.2508Z" fill="white"/>
</svg>
